<svg width="54" height="54" viewBox="0 0 54 54" fill="none" xmlns="http://www.w3.org/2000/svg">
<circle r="27" transform="matrix(-1 0 0 1 27 27)" fill="#323138"/>
<path d="M37 37H17C16.4696 37 15.9609 36.7893 15.5858 36.4142C15.2107 36.0391 15 35.5304 15 35V21C15 20.4696 15.2107 19.9609 15.5858 19.5858C15.9609 19.2107 16.4696 19 17 19H21L23 16H31L33 19H37C37.5304 19 38.0391 19.2107 38.4142 19.5858C38.7893 19.9609 39 20.4696 39 21V35C39 35.5304 38.7893 36.0391 38.4142 36.4142C38.0391 36.7893 37.5304 37 37 37Z" stroke="white" stroke-width="2" stroke-linecap="round" stroke-linejoin="round"/>
<path d="M27 32C29.4853 32 31.5 29.9853 31.5 27.5C31.5 25.0147 29.4853 23 27 23C24.5147 23 22.5 25.0147 22.5 27.5C22.5 29.9853 24.5147 32 27 32Z" stroke="white" stroke-width="2" stroke-linecap="round" stroke-linejoin="round"/>
</svg>
